<svg xmlns="http://www.w3.org/2000/svg" id="Layer_2" data-name="Layer 2" viewBox="0 0 189.84 58.43"><defs><style>   .cls-3 {        stroke-width: 0px;      }     .cls-3 {        fill-rule: evenodd;      }    </style></defs><g id="Layer_1-2" data-name="Layer 1"><g><g><polygon class="cls-3" points="7.27 29.61 5.44 29.61 3.63 35.48 1.82 29.61 0 29.61 2.97 38.61 4.29 38.61 7.27 29.61"></polygon><rect class="cls-1" x="10.99" y="29.61" width="1.76" height="9"></rect><path class="cls-3" d="m23.3,35.96c0-.8-.21-1.45-.7-1.91-.38-.36-.9-.58-1.72-.7l-1.06-.15c-.37-.05-.66-.19-.84-.35-.19-.18-.27-.42-.27-.65,0-.62.46-1.14,1.39-1.14.59,0,1.28.08,1.85.62l1.11-1.1c-.77-.75-1.67-1.05-2.91-1.05-1.95,0-3.14,1.13-3.14,2.73,0,.76.21,1.34.65,1.77.4.39.97.63,1.74.75l1.09.15c.42.06.62.15.8.32.19.18.28.44.28.76,0,.72-.56,1.11-1.59,1.11-.84,0-1.61-.19-2.18-.76l-1.14,1.14c.89.9,1.92,1.19,3.29,1.19,1.88,0,3.34-.99,3.34-2.73"></path><polygon class="cls-3" points="33.38 31.18 33.38 29.61 26.92 29.61 26.92 31.18 29.27 31.18 29.27 38.61 31.03 38.61 31.03 31.18 33.38 31.18"></polygon><path class="cls-3" d="m43.64,38.61l-3.29-9h-1.38l-3.28,9h1.83l.54-1.59h3.2l.53,1.59h1.83Zm-2.83-3.07h-2.24l1.14-3.28,1.1,3.28Z"></path><path class="cls-3" d="m59.91,38.61l-3.29-9h-1.38l-3.28,9h1.83l.54-1.59h3.2l.53,1.59h1.83Zm-2.83-3.07h-2.24l1.14-3.28,1.1,3.28Z"></path><polygon class="cls-3" points="69.49 38.61 69.49 37.05 65.41 37.05 65.41 29.61 63.65 29.61 63.65 38.61 69.49 38.61"></polygon><polygon class="cls-3" points="79.49 38.61 79.49 37.05 75.31 37.05 75.31 34.86 78.87 34.86 78.87 33.29 75.31 33.29 75.31 31.18 79.49 31.18 79.49 29.61 73.56 29.61 73.56 38.61 79.49 38.61"></polygon><path class="cls-3" d="m90.25,34.92v-1.32h-3.4v1.47h1.66v.34c0,.47-.11.87-.4,1.2-.29.32-.72.51-1.25.51-.48,0-.87-.18-1.13-.47-.34-.38-.43-.81-.43-2.54s.09-2.15.43-2.53c.25-.29.65-.48,1.13-.48.9,0,1.42.47,1.62,1.32h1.77c-.24-1.52-1.3-2.88-3.39-2.88-1.01,0-1.8.35-2.43.99-.91.91-.88,2.04-.88,3.59s-.03,2.68.88,3.59c.63.63,1.44.99,2.43.99s1.82-.28,2.54-1.02c.63-.66.86-1.44.86-2.74"></path><path class="cls-3" d="m101.48,38.61l-2.01-3.88c.87-.32,1.64-1.1,1.64-2.36,0-1.5-1.09-2.76-2.92-2.76h-3.53v9h1.76v-3.59h1.26l1.76,3.59h2.04Zm-2.12-6.25c0,.7-.51,1.19-1.28,1.19h-1.66v-2.38h1.66c.77,0,1.28.49,1.28,1.19"></path><polygon class="cls-3" points="111.5 38.61 111.5 37.05 107.33 37.05 107.33 34.86 110.88 34.86 110.88 33.29 107.33 33.29 107.33 31.18 111.5 31.18 111.5 29.61 105.57 29.61 105.57 38.61 111.5 38.61"></polygon><polygon class="cls-3" points="47.41 51.23 47.41 45.19 46.31 45.19 45.08 46.26 45.08 47.45 46.31 46.38 46.31 51.23 47.41 51.23"></polygon><path class="cls-3" d="m54.82,49.48c0-.74-.43-1.14-.76-1.36.31-.21.68-.61.68-1.25,0-1.07-.84-1.72-1.85-1.72s-1.86.65-1.86,1.72c0,.65.37,1.04.68,1.25-.33.22-.75.62-.75,1.36,0,1.17.87,1.81,1.93,1.81s1.93-.64,1.93-1.81m-1.19-2.58c0,.44-.31.76-.75.76s-.75-.32-.75-.76.32-.76.75-.76.75.33.75.76m.08,2.56c0,.47-.36.83-.83.83s-.83-.36-.83-.83.36-.84.83-.84.83.37.83.84"></path><path class="cls-3" d="m61.12,51.23v-.99h-2.33l1.69-1.96c.42-.48.65-.8.65-1.38,0-1.09-.76-1.76-1.83-1.76s-1.84.66-1.84,1.76h1.1c0-.59.37-.77.74-.77.47,0,.73.31.73.75,0,.28-.09.47-.31.73l-2.26,2.62v.99h3.67Z"></path><polygon class="cls-3" points="67.66 50.38 67.66 49.33 67.11 49.33 67.11 48.21 66.05 48.21 66.05 49.33 64.79 49.33 66.86 45.19 65.65 45.19 63.58 49.33 63.58 50.38 66.05 50.38 66.05 51.23 67.11 51.23 67.11 50.38 67.66 50.38"></polygon><path class="cls-3" d="m47.86,20.03l-2.5-2.12c-.91-1.09-.28-2.48.78-3.12,1.03-.62,2.32-.38,3.01.61.51.72.58,1.44.21,2.24.2.19.3.32.45.55.17.25.25.41.36.69-.45.21-.7.33-1.14.55-.46.23-.72.36-1.18.61m8.05-.67c-.62-.03-1.04.14-1.48.58.38.44.75.62,1.33.67.64.05,1.08-.12,1.54-.57-.4-.45-.79-.64-1.39-.67m-2.72.82c-.25-.29-.57-.38-.93-.27-.29.09-.47.26-.57.55.27.23.53.29.87.21.3-.07.48-.21.63-.48m-2.65.7c-.22-.14-.43-.15-.66-.03-.17.09-.26.18-.33.37.17.11.31.13.51.09.24-.06.39-.19.48-.42m6.21-2.82l.11-3.15c.09-1.61,1.11-2.7,2.62-2.34,1.11.27,1.76,1.16,1.81,2.3.03.73-.39,1.73-1,2.31.15.32.19.53.21.88.01.27.04.27-.02.54-.69-.18-1.08-.26-1.78-.36-.76-.11-1.19-.16-1.96-.18m7.29,2.13l2.38-2.1c.84-1.06.4-2.5-.67-3.15-1.02-.63-2.32-.38-3.01.61-.51.72-.57,1.44-.21,2.25-.2.19-.3.32-.45.54-.17.25-.25.41-.36.7.45.21.7.33,1.14.55.46.23.72.36,1.18.61m-5.51.1c.25-.29.57-.39.93-.27.29.09.47.25.57.54-.26.23-.53.29-.87.21-.3-.07-.48-.21-.63-.48m2.65.7c.22-.14.43-.15.66-.03.17.09.26.18.33.36-.17.11-.32.14-.51.09-.24-.06-.4-.19-.48-.43m-10.5,1.84c1.95-.77,3.18-.99,5.28-.97,1.97.02,3.13.24,4.97.97-1.89.62-3.05.81-5.04.82-2.06.01-3.26-.18-5.22-.82m4.56-4.83l-.15-3.15c-.09-1.61-1.11-2.7-2.62-2.33-1.11.27-1.76,1.16-1.81,2.3-.03.73.39,1.73.99,2.31-.14.32-.19.53-.21.88-.01.27,0,.28.06.54.68-.18,1.08-.26,1.78-.36.76-.11,1.19-.15,1.96-.18m.09-10.85v1.79h-1.54v1.21h1.47v1.97c-1.08-.64-1.98-.77-3.19-.45-1.38.36-2.22,1.06-2.8,2.37-1.51-1.15-3.6-.55-4.29,0-1.02.81-1.98,2.39-.75,4.09l4.22,4.07c.2.14.31.26.42.49.07.13.1.22.12.36,2.02,1.18,4.37,1.58,7.02,1.55h.12c2.56-.06,4.55-.25,6.83-1.58.03-.15.05-.23.12-.36.11-.22.22-.34.42-.48l4.09-3.55c.81-1.42.42-3.64-1.15-4.52-.84-.47-2.47-.7-3.82.03-.52-1.35-1.35-2.11-2.73-2.49-1.21-.33-2.12-.21-3.19.45v-1.97h1.47v-1.21h-1.53v-1.76h-1.31Z"></path></g></g></g></svg>